# xmcd CD database file
#
# Track frame offsets:
#	150
#	19202
#	39530
#	53705
#	75037
#	91287
#	109005
#	131585
#	150192
#	173680
#	199647
#	217340
#	252882
#
# Disc length: 4251 seconds
#
# Revision: 2
# Processed by: cddbd v1.5.2PL0 Copyright (c) Steve Scherf et al.
# Submitted via: CDex 1.50
#
DISCID=9b10990d
DTITLE=ruffins, kermit - 1533 st. philip street
DYEAR=2001
DGENRE=Jazz
TTITLE0=ruffins, kermit - ole miss blues
TTITLE1=ruffins, kermit - drop me off in new orleans
TTITLE2=ruffins, kermit - tillie
TTITLE3=ruffins, kermit - bye and bye
TTITLE4=ruffins, kermit - wrap your troubles in dreams
TTITLE5=ruffins, kermit - black and blue
TTITLE6=ruffins, kermit - i still get jealous
TTITLE7=ruffins, kermit - jack, i'm mellow
TTITLE8=ruffins, kermit - meet me at the second line
TTITLE9=ruffins, kermit - keep walkin'
TTITLE10=ruffins, kermit - in the bag
TTITLE11=ruffins, kermit - some of these days
TTITLE12=Data
EXTD=YEAR: 2001
EXTT0=
EXTT1=
EXTT2=
EXTT3=
EXTT4=
EXTT5=
EXTT6=
EXTT7=
EXTT8=
EXTT9=
EXTT10=
EXTT11=
EXTT12=
PLAYORDER=
